<svg width="626" height="213" viewBox="0 0 626 213" fill="none" xmlns="http://www.w3.org/2000/svg">
<path d="M83.45 6.48002C62.7981 22.2917 43.6017 39.9186 26.09 59.15C30.88 68.43 33.21 73.03 37.8 82.15C37.8694 82.244 37.9297 82.3445 37.98 82.45C48 102.59 57.91 122.8 67.81 143C71.57 150.68 76.39 155.21 80.7 155.16C84.55 155.16 88.82 151.53 92.49 145.27C95.94 152.09 97.67 155.5 101.16 162.27C98.6892 165.398 95.5472 167.932 91.9662 169.684C88.3851 171.435 84.4564 172.36 80.47 172.39C67.3 172.44 57.26 162.39 52.16 151.01C39.66 125.01 27.16 99.1 14.25 73.32C11.6233 76.64 9.03333 80.0167 6.48 83.45C-2.16 96.85 -2.16 115.69 6.48 129.09C28.6819 158.002 54.5679 183.888 83.48 206.09C96.88 214.73 115.72 214.73 129.12 206.09C158.032 183.888 183.918 158.002 206.12 129.09C214.76 115.68 214.75 96.86 206.12 83.45C203.56 80.01 200.97 76.66 198.35 73.36C185.47 99.15 172.94 125.1 160.43 151.07C155.32 162.42 145.28 172.49 132.11 172.44C120.79 171.93 111.37 164.64 105.81 155.09C105.805 155.116 105.805 155.144 105.81 155.17C102.15 148.02 100.33 144.45 96.72 137.31L94.72 133.31C94.6321 133.206 94.5519 133.096 94.48 132.98C93.8 131.62 93.48 130.98 92.77 129.6C86.9233 117.993 81.1267 106.41 75.38 94.85C71.9838 89.1949 70.1577 82.7362 70.09 76.14C70.08 75.9535 70.08 75.7666 70.09 75.58C70.21 55.83 86.75 40.31 106.26 40.3C126.03 40.3 142.62 56.13 142.43 76.14C142.43 76.31 142.43 76.48 142.43 76.65C142.279 82.8117 140.599 88.8392 137.54 94.19C131.54 105.643 125.573 117.1 119.64 128.56C115.88 121.17 114.01 117.48 110.28 110.12C115.07 100.57 117.45 95.79 122.28 86.22C122.37 86.06 122.45 85.9 122.55 85.74C124.222 82.8624 125.115 79.5982 125.14 76.27C125.14 76.15 125.14 76.03 125.14 75.91C125.092 70.9054 123.058 66.1247 119.486 62.6196C115.913 59.1146 111.095 57.1723 106.09 57.22C101.085 57.2678 96.3047 59.3016 92.7996 62.8742C89.2946 66.4468 87.3523 71.2654 87.4 76.27C87.4 76.41 87.4 76.54 87.4 76.67C87.4909 80.0288 88.4709 83.3035 90.24 86.16C90.3781 86.3835 90.5049 86.6138 90.62 86.85C94.41 94.38 96.28 98.14 100.04 105.65H99.96C105.14 115.89 110.333 126.127 115.54 136.36V136.43C116.83 139.01 117.47 140.29 118.77 142.87L118.87 143.05C122.73 150.54 127.61 155.05 131.87 155.11C136.13 155.17 141.01 150.63 144.77 142.96C158.52 114.96 172.27 86.9 186.5 59.1C168.976 39.8783 149.762 22.2677 129.09 6.48002C122.232 2.2436 114.331 -0.000244141 106.27 -0.000244141C98.2093 -0.000244141 90.3077 2.2436 83.45 6.48002Z" fill="url(#paint0_linear_3_65)"/>
<path d="M296.21 67.93C296.575 67.0031 297.236 66.2226 298.09 65.71C298.957 65.1595 299.963 64.8649 300.99 64.86C301.711 64.8365 302.428 64.9691 303.092 65.2487C303.757 65.5283 304.353 65.9484 304.84 66.48C305.746 67.4222 306.261 68.6731 306.28 69.98C306.272 70.6778 306.097 71.3636 305.77 71.98C305.444 72.6169 305.19 73.2876 305.01 73.98C304.6 75.18 303.89 77.12 302.87 79.78C301.85 82.44 300.51 86.02 298.87 90.46C297.23 94.9 295.14 100.46 292.64 107.19L300.49 128.53L323.49 67.92C323.845 66.987 324.508 66.2036 325.37 65.7C326.237 65.1485 327.242 64.8538 328.27 64.85C328.989 64.828 329.704 64.9613 330.367 65.2408C331.03 65.5204 331.624 65.9397 332.11 66.47C333.04 67.413 333.573 68.6762 333.6 70C333.587 70.6972 333.413 71.3819 333.09 72C332.97 72.24 332.54 73.4 331.81 75.51C331.08 77.62 329.7 81.35 327.71 86.69C325.72 92.03 322.99 99.3 319.52 108.46C316.05 117.62 311.58 129.27 306.12 143.37C305.707 144.541 305.021 145.596 304.12 146.45C303.026 147.268 301.685 147.689 300.319 147.641C298.954 147.594 297.645 147.082 296.61 146.19C295.746 145.407 295.063 144.445 294.61 143.37C293.13 139.37 291.763 135.53 290.51 131.85C289.257 128.17 288.087 124.733 287 121.54C285.753 124.727 284.473 128.17 283.16 131.87C281.847 135.57 280.397 139.41 278.81 143.39C278.401 144.563 277.715 145.619 276.81 146.47C275.787 147.327 274.471 147.754 273.14 147.66C272.435 147.69 271.732 147.577 271.072 147.327C270.412 147.078 269.809 146.698 269.3 146.21C268.443 145.421 267.762 144.46 267.3 143.39C262.52 130.31 258.48 119.24 255.18 110.18C251.88 101.12 249.213 93.8367 247.18 88.33C245.14 82.81 243.663 78.81 242.75 76.33C241.83 73.83 241.38 72.52 241.38 72.4C240.941 71.4163 240.78 70.3308 240.916 69.2622C241.052 68.1935 241.479 67.1827 242.15 66.34C242.616 65.8418 243.187 65.4532 243.822 65.2025C244.457 64.9517 245.139 64.845 245.82 64.89C246.958 64.8633 248.081 65.1579 249.06 65.74C249.934 66.2317 250.617 67.0031 251 67.93L273.19 128.54L281.39 107.03C279.11 100.877 277.173 95.6133 275.58 91.24C273.99 86.86 272.69 83.3 271.65 80.57C270.61 77.84 269.89 75.81 269.44 74.5C269.168 73.8055 268.94 73.094 268.76 72.37C268.398 71.6265 268.219 70.8068 268.24 69.98C268.189 68.6374 268.65 67.3256 269.53 66.31C269.995 65.8125 270.564 65.4244 271.197 65.1737C271.83 64.9229 272.511 64.8158 273.19 64.86C274.332 64.8336 275.458 65.1281 276.44 65.71C277.294 66.2202 277.952 67.0018 278.31 67.93L287 92.69L296.21 67.93Z" fill="white"/>
<path d="M420 132.13C416.093 136.466 411.506 140.137 406.42 143C401.197 146 395.273 147.563 389.25 147.53C378.434 147.617 368.018 143.447 360.25 135.92C356.456 132.221 353.44 127.801 351.38 122.92C349.176 117.743 348.07 112.166 348.13 106.54C348.102 101.007 349.176 95.5236 351.29 90.41C353.308 85.4681 356.266 80.9648 360 77.15C363.752 73.3549 368.217 70.3403 373.14 68.28C378.345 66.0749 383.947 64.9586 389.6 65C394.985 64.9836 400.31 66.119 405.22 68.33C415.062 72.6869 422.912 80.5764 427.22 90.44C429.446 95.4792 430.584 100.931 430.56 106.44V142.44C430.591 143.155 430.477 143.868 430.225 144.538C429.973 145.207 429.588 145.819 429.093 146.336C428.598 146.852 428.004 147.263 427.346 147.544C426.688 147.825 425.98 147.97 425.265 147.97C424.55 147.97 423.842 147.825 423.184 147.544C422.526 147.263 421.932 146.852 421.437 146.336C420.942 145.819 420.557 145.207 420.305 144.538C420.053 143.868 419.939 143.155 419.97 142.44L420 132.13ZM420 106.52C420.03 102.398 419.213 98.3136 417.6 94.52C414.526 87.1029 408.635 81.2083 401.22 78.13C397.425 76.5229 393.341 75.7095 389.22 75.74C385.144 75.7099 381.106 76.5236 377.36 78.13C369.993 81.253 364.142 87.1363 361.06 94.52C359.45 98.3143 358.637 102.399 358.67 106.52C358.64 110.596 359.454 114.634 361.06 118.38C364.186 125.716 370.026 131.559 377.36 134.69C381.076 136.248 385.063 137.056 389.092 137.07C393.121 137.084 397.113 136.302 400.84 134.77C408.133 131.712 413.969 125.965 417.14 118.72C418.827 114.863 419.783 110.726 419.96 106.52" fill="white"/>
<path d="M493.23 65.2C497.414 65.1202 501.577 65.7978 505.52 67.2C508.821 68.3952 511.972 69.969 514.91 71.89C517.179 73.3506 519.22 75.1363 520.97 77.19C522.39 78.95 523.11 80.29 523.11 81.19C523.11 81.8105 522.972 82.4232 522.705 82.9837C522.439 83.5441 522.051 84.0382 521.57 84.43C520.648 85.303 519.429 85.7928 518.16 85.8C517.461 85.8129 516.768 85.683 516.121 85.4182C515.474 85.1534 514.889 84.7593 514.4 84.26C511.508 81.7244 508.221 79.6776 504.67 78.2C500.931 76.6846 496.924 75.9364 492.89 76C488.807 75.9511 484.758 76.7514 481 78.35C473.631 81.4676 467.776 87.3476 464.69 94.73C463.089 98.5268 462.275 102.609 462.3 106.73C462.274 110.806 463.087 114.843 464.69 118.59C467.824 125.914 473.668 131.744 481 134.86C488.558 138.019 497.061 138.048 504.64 134.94C508.252 133.428 511.551 131.257 514.37 128.54C514.857 128.039 515.443 127.644 516.09 127.379C516.737 127.114 517.431 126.985 518.13 127C519.493 127.001 520.804 127.519 521.8 128.45C522.326 128.906 522.744 129.472 523.026 130.108C523.308 130.744 523.446 131.435 523.43 132.13C523.43 133.03 522.76 134.37 521.43 136.13C519.793 138.197 517.802 139.958 515.55 141.33C512.536 143.219 509.293 144.714 505.9 145.78C501.672 147.084 497.264 147.715 492.84 147.65C482.023 147.742 471.605 143.571 463.84 136.04C460.043 132.342 457.024 127.922 454.96 123.04C452.761 117.862 451.654 112.286 451.71 106.66C451.673 101.29 452.704 95.9672 454.741 90.9991C456.779 86.0311 459.783 81.5174 463.58 77.72C467.368 73.9624 471.829 70.9502 476.73 68.84C481.938 66.5834 487.527 65.3379 493.2 65.17" fill="white"/>
<path d="M584.4 65C589.78 64.9959 595.099 66.1415 600 68.36C609.842 72.7169 617.692 80.6064 622 90.47C624.186 95.4902 625.322 100.904 625.339 106.38C625.357 111.855 624.254 117.276 622.1 122.31C619.984 127.161 617.002 131.587 613.3 135.37C609.478 139.246 604.918 142.316 599.888 144.398C594.859 146.479 589.463 147.531 584.02 147.49C573.205 147.571 562.791 143.402 555.02 135.88C551.229 132.179 548.214 127.759 546.15 122.88C542.903 115.326 541.989 106.974 543.525 98.8962C545.061 90.8187 548.977 83.385 554.77 77.55C558.558 73.7989 563.015 70.7903 567.91 68.68C573.125 66.4244 578.72 65.1757 584.4 65ZM584.06 75.76C579.981 75.7288 575.939 76.5426 572.19 78.15C564.823 81.2763 558.97 87.158 555.88 94.54C554.283 98.3379 553.474 102.42 553.5 106.54C553.476 110.614 554.286 114.65 555.88 118.4C559.016 125.732 564.858 131.574 572.19 134.71C575.941 136.309 579.982 137.119 584.06 137.09C588.18 137.119 592.263 136.31 596.06 134.71C603.442 131.62 609.324 125.767 612.45 118.4C614.056 114.654 614.87 110.616 614.84 106.54C614.873 102.419 614.06 98.3343 612.45 94.54C609.348 87.1246 603.432 81.2415 596 78.18C592.205 76.5723 588.121 75.759 584 75.79" fill="white"/>
<path d="M292.24 196.55V171H299.44C301.496 170.958 303.526 171.466 305.32 172.47C307.024 173.443 308.399 174.902 309.27 176.66C310.229 178.595 310.712 180.731 310.68 182.89V184.52C310.731 186.711 310.254 188.882 309.29 190.85C308.407 192.611 307.013 194.065 305.29 195.02C303.449 196.017 301.384 196.53 299.29 196.51L292.24 196.55ZM295.6 173.79V193.79H299.14C300.264 193.853 301.388 193.67 302.434 193.252C303.479 192.833 304.42 192.191 305.19 191.37C306.63 189.76 307.36 187.46 307.36 184.48V183C307.514 180.573 306.786 178.173 305.31 176.24C304.591 175.423 303.697 174.778 302.695 174.354C301.692 173.93 300.607 173.737 299.52 173.79H295.6Z" fill="white"/>
<path d="M319.69 172.56C319.677 172.072 319.848 171.597 320.17 171.23C320.565 170.881 321.073 170.689 321.6 170.689C322.127 170.689 322.635 170.881 323.03 171.23C323.361 171.593 323.541 172.069 323.53 172.56C323.503 172.937 323.37 173.298 323.147 173.602C322.923 173.907 322.618 174.142 322.266 174.28C321.915 174.418 321.531 174.454 321.16 174.383C320.789 174.312 320.446 174.138 320.17 173.88C319.845 173.519 319.673 173.045 319.69 172.56ZM323.19 196.56H320V177.56H323.24L323.19 196.56Z" fill="white"/>
<path d="M332 186.91C331.878 184.413 332.6 181.947 334.05 179.91C334.7 179.106 335.519 178.454 336.449 178.001C337.378 177.548 338.396 177.305 339.43 177.289C340.464 177.272 341.489 177.484 342.433 177.907C343.376 178.331 344.215 178.956 344.89 179.74L345.05 177.64H348.05V196.14C348.109 197.205 347.946 198.271 347.571 199.27C347.196 200.268 346.616 201.178 345.87 201.94C345.079 202.658 344.152 203.21 343.143 203.564C342.135 203.918 341.066 204.066 340 204C338.62 203.994 337.258 203.697 336 203.13C334.796 202.625 333.757 201.794 333 200.73L334.69 198.73C335.277 199.529 336.044 200.178 336.928 200.626C337.812 201.074 338.789 201.308 339.78 201.31C340.454 201.347 341.128 201.248 341.762 201.017C342.396 200.787 342.977 200.431 343.47 199.97C343.932 199.468 344.288 198.878 344.516 198.236C344.745 197.593 344.841 196.911 344.8 196.23V194.6C344.138 195.346 343.317 195.934 342.399 196.321C341.48 196.709 340.486 196.886 339.49 196.84C338.442 196.864 337.403 196.632 336.464 196.165C335.525 195.698 334.714 195.01 334.1 194.16C332.621 192.04 331.883 189.492 332 186.91ZM335.26 187.28C335.17 189.042 335.628 190.788 336.57 192.28C336.981 192.869 337.533 193.346 338.176 193.666C338.819 193.985 339.532 194.138 340.25 194.11C341.194 194.146 342.127 193.9 342.931 193.403C343.734 192.906 344.371 192.181 344.76 191.32V182.67C344.356 181.834 343.719 181.133 342.926 180.651C342.133 180.168 341.218 179.925 340.29 179.95C339.568 179.921 338.851 180.075 338.204 180.396C337.558 180.718 337.003 181.197 336.59 181.79C335.591 183.439 335.133 185.358 335.28 187.28H335.26Z" fill="white"/>
<path d="M357.35 172.56C357.337 172.072 357.508 171.597 357.83 171.23C358.015 171.042 358.239 170.897 358.486 170.804C358.733 170.71 358.997 170.672 359.26 170.69C359.525 170.672 359.79 170.711 360.038 170.804C360.287 170.897 360.512 171.043 360.7 171.23C361.029 171.594 361.204 172.07 361.19 172.56C361.208 173.048 361.032 173.522 360.7 173.88C360.51 174.063 360.283 174.204 360.035 174.293C359.787 174.383 359.523 174.419 359.26 174.4C358.998 174.419 358.736 174.383 358.489 174.293C358.243 174.203 358.018 174.063 357.83 173.88C357.505 173.519 357.333 173.045 357.35 172.56ZM360.86 196.56H357.62V177.56H360.86V196.56Z" fill="white"/>
<path d="M374.85 173V177.59H378.39V180.1H374.85V191.87C374.804 192.479 374.974 193.084 375.33 193.58C375.54 193.788 375.793 193.947 376.071 194.046C376.349 194.144 376.646 194.18 376.94 194.15C377.459 194.131 377.975 194.061 378.48 193.94V196.55C377.669 196.776 376.832 196.894 375.99 196.9C375.38 196.944 374.769 196.849 374.202 196.62C373.635 196.391 373.128 196.035 372.72 195.58C371.917 194.509 371.523 193.186 371.61 191.85V180.1H368.16V177.59H371.61V173H374.85Z" fill="white"/>
<path d="M398.29 196.55C398.041 195.909 397.89 195.235 397.84 194.55C397.155 195.299 396.32 195.895 395.39 196.3C394.46 196.705 393.455 196.909 392.44 196.9C390.761 196.966 389.119 196.399 387.84 195.31C387.265 194.817 386.806 194.202 386.496 193.511C386.187 192.819 386.034 192.068 386.05 191.31C386.013 190.417 386.2 189.528 386.593 188.725C386.985 187.922 387.572 187.229 388.3 186.71C390.186 185.515 392.401 184.944 394.63 185.08H397.79V183.59C397.818 183.094 397.743 182.597 397.571 182.131C397.399 181.665 397.133 181.239 396.79 180.88C396.381 180.524 395.905 180.252 395.39 180.08C394.875 179.908 394.331 179.84 393.79 179.88C392.752 179.843 391.732 180.152 390.89 180.76C390.533 180.988 390.239 181.301 390.033 181.671C389.827 182.041 389.716 182.457 389.71 182.88H386.45C386.468 181.881 386.82 180.916 387.45 180.14C388.166 179.219 389.106 178.496 390.18 178.04C391.378 177.519 392.673 177.256 393.98 177.27C395.834 177.164 397.662 177.748 399.11 178.91C399.735 179.48 400.231 180.178 400.564 180.956C400.897 181.734 401.059 182.574 401.04 183.42V192.15C400.985 193.563 401.209 194.974 401.7 196.3V196.58L398.29 196.55ZM392.91 194.08C393.929 194.076 394.93 193.804 395.81 193.29C396.662 192.839 397.359 192.142 397.81 191.29V187.4H395.26C391.26 187.4 389.277 188.563 389.31 190.89C389.289 191.336 389.368 191.781 389.541 192.193C389.714 192.605 389.977 192.973 390.31 193.27C391.052 193.841 391.974 194.129 392.91 194.08Z" fill="white"/>
<path d="M414 196.55H410.8V169.64H414V196.55Z" fill="white"/>
<path d="M451.53 189.87H440.84L438.44 196.55H435L444.72 171H447.66L457.42 196.51H454L451.53 189.87ZM441.86 187.12H450.53L446.19 175.19L441.86 187.12Z" fill="white"/>
<path d="M464 186.91C463.878 184.413 464.6 181.947 466.05 179.91C466.7 179.106 467.519 178.454 468.449 178.001C469.378 177.548 470.396 177.305 471.43 177.289C472.464 177.272 473.489 177.484 474.433 177.907C475.376 178.331 476.215 178.956 476.89 179.74L477.05 177.64H480.05V196.14C480.108 197.205 479.944 198.27 479.568 199.269C479.193 200.267 478.615 201.177 477.87 201.94C477.079 202.658 476.152 203.21 475.143 203.564C474.135 203.918 473.066 204.066 472 204C470.62 203.996 469.257 203.699 468 203.13C466.796 202.625 465.757 201.794 465 200.73L466.68 198.73C467.269 199.529 468.037 200.179 468.923 200.627C469.809 201.075 470.787 201.309 471.78 201.31C472.454 201.347 473.128 201.248 473.762 201.017C474.396 200.787 474.977 200.431 475.47 199.97C475.931 199.468 476.285 198.877 476.512 198.235C476.739 197.592 476.833 196.91 476.79 196.23V194.6C476.128 195.346 475.307 195.934 474.389 196.321C473.47 196.709 472.476 196.886 471.48 196.84C470.432 196.863 469.394 196.631 468.455 196.164C467.516 195.697 466.705 195.009 466.09 194.16C464.614 192.039 463.879 189.491 464 186.91ZM467.25 187.28C467.158 189.044 467.62 190.792 468.57 192.28C468.98 192.87 469.532 193.347 470.175 193.667C470.819 193.987 471.532 194.139 472.25 194.11C473.192 194.144 474.123 193.897 474.925 193.4C475.726 192.903 476.362 192.179 476.75 191.32V182.67C476.348 181.833 475.712 181.13 474.918 180.647C474.125 180.165 473.208 179.922 472.28 179.95C471.56 179.922 470.844 180.076 470.199 180.398C469.555 180.719 469.001 181.198 468.59 181.79C467.577 183.434 467.105 185.354 467.24 187.28H467.25Z" fill="white"/>
<path d="M497.17 196.9C496.004 196.943 494.842 196.74 493.76 196.304C492.678 195.869 491.7 195.209 490.89 194.37C489.223 192.521 488.356 190.087 488.48 187.6V187C488.457 185.274 488.823 183.565 489.55 182C490.214 180.591 491.252 179.391 492.55 178.53C493.794 177.712 495.251 177.278 496.74 177.28C497.821 177.221 498.901 177.41 499.898 177.833C500.895 178.256 501.782 178.901 502.49 179.72C503.863 181.34 504.547 183.673 504.54 186.72V188H491.72C491.684 189.661 492.269 191.277 493.36 192.53C493.86 193.093 494.477 193.538 495.168 193.835C495.86 194.133 496.608 194.274 497.36 194.25C498.376 194.285 499.381 194.043 500.27 193.55C501.078 193.076 501.785 192.447 502.35 191.7L504.35 193.24C503.584 194.431 502.516 195.397 501.255 196.04C499.993 196.683 498.584 196.98 497.17 196.9ZM496.76 179.9C496.141 179.89 495.528 180.013 494.96 180.259C494.393 180.506 493.885 180.871 493.47 181.33C492.507 182.453 491.929 183.855 491.82 185.33H501.32V185.08C501.319 183.69 500.851 182.341 499.99 181.25C499.585 180.801 499.085 180.446 498.526 180.213C497.968 179.98 497.365 179.873 496.76 179.9Z" fill="white"/>
<path d="M515.79 177.59L515.89 179.97C516.553 179.097 517.413 178.394 518.401 177.92C519.388 177.445 520.475 177.212 521.57 177.24C525.57 177.24 527.59 179.5 527.63 184.02V196.55H524.39V184C524.463 182.918 524.127 181.847 523.45 181C523.069 180.644 522.618 180.371 522.125 180.198C521.633 180.026 521.11 179.959 520.59 180C519.601 179.982 518.632 180.276 517.82 180.84C517.045 181.4 516.42 182.142 516 183V196.51H512.76V177.51L515.79 177.59Z" fill="white"/>
<path d="M544.54 194.25C545.632 194.26 546.693 193.889 547.54 193.2C547.949 192.885 548.288 192.489 548.536 192.036C548.784 191.583 548.935 191.084 548.98 190.57H552.04C551.969 191.692 551.581 192.77 550.92 193.68C550.209 194.678 549.261 195.482 548.16 196.02C547.032 196.603 545.78 196.905 544.51 196.9C543.355 196.952 542.204 196.747 541.138 196.299C540.073 195.851 539.12 195.172 538.35 194.31C536.734 192.324 535.918 189.806 536.06 187.25V186.7C536.023 185.006 536.365 183.325 537.06 181.78C537.686 180.403 538.701 179.239 539.98 178.43C541.333 177.614 542.89 177.201 544.47 177.24C546.416 177.175 548.313 177.859 549.77 179.15C550.472 179.782 551.034 180.552 551.421 181.413C551.809 182.274 552.013 183.206 552.02 184.15H549C548.935 183.008 548.433 181.934 547.6 181.15C547.189 180.758 546.704 180.451 546.174 180.246C545.644 180.042 545.078 179.945 544.51 179.96C543.775 179.926 543.043 180.07 542.377 180.38C541.71 180.69 541.128 181.157 540.68 181.74C539.681 183.261 539.204 185.065 539.32 186.88V187.5C539.216 189.269 539.69 191.024 540.67 192.5C541.125 193.083 541.715 193.547 542.389 193.852C543.063 194.157 543.801 194.293 544.54 194.25Z" fill="white"/>
<path d="M566.33 191.8L570.75 177.59H574.21L566.59 199.47C565.41 202.63 563.54 204.2 560.97 204.2H560.36L559.15 203.97V201.3L560.02 201.37C560.926 201.421 561.824 201.186 562.59 200.7C563.329 200.061 563.859 199.214 564.11 198.27L564.82 196.34L558.06 177.59H561.6L566.33 191.8Z" fill="white"/>
<defs>
<linearGradient id="paint0_linear_3_65" x1="206.798" y1="106.285" x2="0" y2="106.285" gradientUnits="userSpaceOnUse">
<stop stop-color="#00E6E3"/>
<stop offset="1" stop-color="#00FF68"/>
</linearGradient>
</defs>
</svg>
