<svg width="200" height="44" viewBox="0 0 200 44" fill="none" xmlns="http://www.w3.org/2000/svg">
<path d="M28.6768 1.59724C28.8659 1.1169 29.2084 0.712488 29.651 0.44686C30.1005 0.161581 30.6214 0.00891328 31.1538 0.00640171C31.5272 -0.00578161 31.8988 0.0629294 32.2431 0.207826C32.5875 0.352724 32.8964 0.570381 33.1488 0.845867C33.6182 1.33409 33.8849 1.98228 33.895 2.65952C33.8909 3.02113 33.8003 3.3765 33.6307 3.6959C33.462 4.02593 33.3299 4.37347 33.2369 4.73228C33.0244 5.3541 32.6565 6.35938 32.128 7.73776C31.5994 9.11614 30.905 10.9713 30.0552 13.272C29.2054 15.5728 28.1224 18.4539 26.8269 21.9413L30.8947 32.9994L42.813 1.59206C42.9968 1.10859 43.3406 0.702625 43.7872 0.441678C44.2364 0.155879 44.7575 0.00316683 45.2899 0.00121872C45.6625 -0.0102113 46.0331 0.0588695 46.3765 0.203743C46.7199 0.348616 47.028 0.565872 47.2798 0.840684C47.7615 1.32932 48.0378 1.98388 48.0519 2.66989C48.0453 3.03115 47.9548 3.38594 47.7876 3.70626C47.7254 3.83063 47.5026 4.43173 47.1243 5.5251C46.746 6.61848 46.0309 8.55132 44.9997 11.3184C43.9685 14.0856 42.5539 17.8528 40.7558 22.5994C38.9577 27.346 36.6414 33.3829 33.8121 40.6893C33.598 41.296 33.2428 41.843 32.7757 42.2853C32.2086 42.7094 31.5138 42.9271 30.8062 42.9026C30.0985 42.8781 29.4205 42.6128 28.8841 42.1506C28.4363 41.7449 28.0825 41.2461 27.8477 40.6893C27.0808 38.6166 26.3726 36.6267 25.7232 34.7198C25.0737 32.8129 24.4674 31.032 23.9043 29.3773C23.2583 31.0286 22.595 32.8129 21.9145 34.7302C21.2339 36.6475 20.4825 38.6373 19.6604 40.6997C19.4483 41.3073 19.0928 41.8548 18.624 42.2957C18.0939 42.7399 17.4121 42.961 16.7222 42.9123C16.357 42.9278 15.9925 42.8692 15.6505 42.74C15.3086 42.6109 14.9963 42.4139 14.7324 42.161C14.2883 41.7519 13.9352 41.2541 13.696 40.6997C11.2191 33.9218 9.1256 28.1855 7.41558 23.4907C5.70556 18.7959 4.32373 15.0218 3.27008 12.1683C2.21297 9.30787 1.44779 7.23512 0.974509 5.95002C0.497777 4.65455 0.264595 3.97572 0.264595 3.91354C0.037063 3.40379 -0.0460606 2.84132 0.0243035 2.28755C0.0946676 1.73377 0.315809 1.20997 0.663594 0.773317C0.905212 0.515129 1.20114 0.313805 1.53001 0.183869C1.85888 0.0539323 2.21251 -0.00137319 2.56535 0.0219467C3.15526 0.0081083 3.73713 0.16076 4.24427 0.462406C4.69718 0.717205 5.05125 1.1169 5.24956 1.59724L16.7481 33.0046L20.9973 21.8584C19.8158 18.6698 18.8123 15.9424 17.9866 13.6762C17.1627 11.4065 16.489 9.56178 15.9501 8.14713C15.4112 6.73248 15.0381 5.68056 14.8049 5.00173C14.6637 4.64183 14.546 4.27314 14.4526 3.89799C14.2648 3.51273 14.1724 3.08798 14.1831 2.65952C14.1568 1.96379 14.3958 1.28404 14.8516 0.757772C15.0924 0.499993 15.3875 0.298882 15.7154 0.168948C16.0434 0.0390139 16.3961 -0.016503 16.7481 0.00640171C17.3397 -0.00729411 17.9232 0.145312 18.4323 0.44686C18.8748 0.711236 19.2159 1.11625 19.4013 1.59724L23.9043 14.4276L28.6768 1.59724Z" fill="white"/>
<path d="M92.8233 34.8649C90.7985 37.1115 88.4219 39.0139 85.7863 40.4976C83.0799 42.0521 80.0101 42.862 76.889 42.845C71.2844 42.8899 65.8868 40.729 61.8616 36.8288C59.8956 34.9123 58.3329 32.6219 57.2653 30.0924C56.1233 27.4099 55.5498 24.5198 55.5812 21.6045C55.5668 18.7373 56.1234 15.8959 57.2186 13.2461C58.2644 10.6853 59.7972 8.35172 61.7321 6.37494C63.6761 4.40839 65.9902 2.84623 68.5411 1.77861C71.2384 0.635939 74.1411 0.0575144 77.0704 0.0789596C79.8606 0.0704612 82.6204 0.658809 85.1645 1.80453C90.2645 4.0622 94.3324 8.15043 96.5646 13.2617C97.718 15.8729 98.3078 18.6981 98.2954 21.5527V40.2074C98.3115 40.5778 98.2524 40.9476 98.1218 41.2945C97.9912 41.6414 97.7917 41.9583 97.5353 42.226C97.2789 42.4938 96.971 42.7069 96.6301 42.8525C96.2892 42.998 95.9223 43.0731 95.5516 43.0731C95.1809 43.0731 94.814 42.998 94.4731 42.8525C94.1322 42.7069 93.8242 42.4938 93.5679 42.226C93.3115 41.9583 93.112 41.6414 92.9813 41.2945C92.8507 40.9476 92.7917 40.5778 92.8078 40.2074L92.8233 34.8649ZM92.8233 21.5941C92.8386 19.4581 92.4154 17.3417 91.5797 15.3759C89.9869 11.5324 86.9343 8.47788 83.0918 6.88276C81.1252 6.04997 79.009 5.6285 76.8735 5.6443C74.7614 5.6287 72.669 6.05036 70.7278 6.88276C66.9105 8.50106 63.8786 11.5497 62.2813 15.3759C61.4473 17.342 61.0258 19.4584 61.0429 21.5941C61.0273 23.7062 61.4489 25.7986 62.2813 27.7398C63.9013 31.5411 66.9275 34.5692 70.7278 36.1915C72.6534 36.9985 74.7193 37.4177 76.8072 37.4248C78.8951 37.4319 80.9638 37.0269 82.8948 36.2329C86.6739 34.6482 89.6984 31.6701 91.3413 27.916C92.2156 25.9174 92.7111 23.7737 92.8026 21.5941" fill="white"/>
<path d="M130.77 0.182568C132.938 0.141207 135.096 0.492317 137.139 1.21894C138.849 1.83824 140.482 2.65379 142.005 3.64925C143.18 4.40607 144.238 5.3314 145.145 6.39564C145.881 7.30765 146.254 8.00202 146.254 8.46839C146.254 8.78993 146.182 9.10741 146.044 9.39782C145.906 9.68822 145.705 9.94425 145.456 10.1473C144.978 10.5997 144.346 10.8535 143.689 10.8572C143.327 10.8639 142.967 10.7966 142.632 10.6594C142.297 10.5221 141.994 10.3179 141.74 10.0592C140.242 8.74531 138.539 7.68464 136.698 6.91901C134.761 6.1337 132.685 5.74602 130.594 5.779C128.478 5.75365 126.38 6.16833 124.433 6.99674C120.614 8.61223 117.58 11.6592 115.981 15.4847C115.151 17.4521 114.73 19.5677 114.743 21.7029C114.729 23.8148 115.151 25.9068 115.981 27.8486C117.605 31.6439 120.634 34.6647 124.433 36.2795C128.349 37.9165 132.755 37.9314 136.683 36.321C138.554 35.5372 140.264 34.4127 141.725 33.0046C141.977 32.7449 142.281 32.54 142.616 32.4027C142.951 32.2654 143.311 32.1987 143.673 32.2066C144.379 32.2071 145.059 32.4757 145.575 32.9579C145.847 33.1941 146.064 33.4875 146.21 33.8171C146.356 34.1467 146.428 34.5045 146.42 34.8649C146.42 35.3312 146.072 36.0256 145.383 36.9376C144.535 38.0088 143.503 38.9211 142.336 39.6322C140.775 40.611 139.094 41.3859 137.336 41.9381C135.145 42.6138 132.861 42.9408 130.568 42.9071C124.963 42.9549 119.564 40.7936 115.541 36.891C113.573 34.9747 112.009 32.6843 110.939 30.1546C109.8 27.4713 109.226 24.5817 109.255 21.6666C109.236 18.8842 109.77 16.1257 110.826 13.5513C111.882 10.977 113.439 8.63801 115.406 6.67028C117.369 4.72313 119.681 3.16221 122.22 2.06877C124.919 0.899381 127.815 0.253995 130.755 0.167023" fill="white"/>
<path d="M178.013 0.0789318C180.801 0.0767962 183.557 0.670421 186.097 1.82004C191.197 4.07772 195.265 8.16595 197.497 13.2772C198.63 15.8786 199.219 18.6841 199.228 21.5214C199.237 24.3586 198.665 27.1678 197.549 29.7763C196.452 32.2902 194.907 34.5834 192.989 36.5438C191.009 38.5523 188.645 40.143 186.039 41.2218C183.433 42.3005 180.637 42.8454 177.817 42.8242C172.212 42.8664 166.816 40.7059 162.789 36.8081C160.825 34.8901 159.262 32.6001 158.193 30.0716C156.51 26.1572 156.037 21.8292 156.832 17.6435C157.628 13.4579 159.658 9.6058 162.66 6.58219C164.622 4.63839 166.932 3.0794 169.468 1.98586C172.171 0.817011 175.07 0.16999 178.013 0.0789318ZM177.837 5.65463C175.723 5.63847 173.629 6.06014 171.686 6.8931C167.869 8.51308 164.836 11.561 163.235 15.3862C162.407 17.3542 161.988 19.4696 162.001 21.6045C161.989 23.7157 162.409 25.8071 163.235 27.7502C164.86 31.5496 167.887 34.5766 171.686 36.2018C173.63 37.0306 175.724 37.4504 177.837 37.4351C179.972 37.4503 182.088 37.0307 184.055 36.2018C187.881 34.6005 190.929 31.5675 192.549 27.7502C193.381 25.809 193.803 23.7165 193.787 21.6045C193.804 19.4688 193.383 17.3523 192.549 15.3862C190.941 11.5436 187.876 8.49508 184.024 6.90865C182.058 6.07558 179.942 5.65409 177.806 5.67018" fill="white"/>
</svg>
